<svg width="36" height="39" viewBox="0 0 36 39" fill="none" xmlns="http://www.w3.org/2000/svg">
<path d="M6.72 31H2.28V10.06H10.38C12.42 10.06 14 10.66 15.12 11.86C16.24 13.04 16.8 14.66 16.8 16.72C16.8 18.2 16.47 19.48 15.81 20.56C15.17 21.62 14.27 22.31 13.11 22.63L17.22 31H12.3L8.79 23.23H6.72V31ZM9.3 19.75C10.34 19.75 11.07 19.55 11.49 19.15C11.91 18.75 12.12 18.09 12.12 17.17V16.27C12.12 15.35 11.91 14.69 11.49 14.29C11.07 13.89 10.34 13.69 9.3 13.69H6.72V19.75H9.3ZM33.3183 10.06V25.15C33.3183 27.05 32.6783 28.56 31.3983 29.68C30.1383 30.8 28.4483 31.36 26.3283 31.36C24.2683 31.36 22.6383 30.85 21.4383 29.83C20.2383 28.79 19.4683 27.36 19.1283 25.54L23.3883 24.67C23.7683 26.69 24.7483 27.7 26.3283 27.7C27.1083 27.7 27.7083 27.45 28.1283 26.95C28.5483 26.45 28.7583 25.7 28.7583 24.7V13.75H21.8583V10.06H33.3183Z" fill="black"/>
<line y1="37" x2="36" y2="37" stroke="black" stroke-width="4"/>
</svg>
