<svg width="42" height="39" viewBox="0 0 42 39" fill="none" xmlns="http://www.w3.org/2000/svg">
<path d="M7.70824 30H2.61529V5.98059H11.9065C14.2465 5.98059 16.0588 6.66882 17.3435 8.04529C18.6282 9.39882 19.2706 11.2571 19.2706 13.62C19.2706 15.3176 18.8921 16.7859 18.135 18.0247C17.4009 19.2406 16.3685 20.0321 15.0379 20.3991L19.7524 30H14.1088L10.0826 21.0874H7.70824V30ZM10.6676 17.0956C11.8606 17.0956 12.6979 16.8662 13.1797 16.4074C13.6615 15.9485 13.9024 15.1915 13.9024 14.1362V13.1038C13.9024 12.0485 13.6615 11.2915 13.1797 10.8326C12.6979 10.3738 11.8606 10.1444 10.6676 10.1444H7.70824V17.0956H10.6676ZM38.218 5.98059V23.2897C38.218 25.4691 37.4839 27.2012 36.0157 28.4859C34.5704 29.7706 32.6319 30.4129 30.2001 30.4129C27.8371 30.4129 25.9674 29.8279 24.591 28.6579C23.2145 27.465 22.3313 25.8247 21.9413 23.7371L26.8277 22.7391C27.2636 25.0562 28.3877 26.2147 30.2001 26.2147C31.0948 26.2147 31.783 25.9279 32.2648 25.3544C32.7466 24.7809 32.9874 23.9206 32.9874 22.7735V10.2132H25.0727V5.98059H38.218Z" fill="#D0A162"/>
<line y1="36.7059" x2="41.2941" y2="36.7059" stroke="#D0A162" stroke-width="4.58824"/>
</svg>
